<svg width="683" height="683" viewBox="0 0 683 683" fill="none" xmlns="http://www.w3.org/2000/svg">
<g filter="url(#filter0_d_2_2)">
<path d="M62 129C62 101.386 84.3858 79 112 79H582C609.614 79 632 101.386 632 129V549C632 576.614 609.614 599 582 599H112C84.3858 599 62 576.614 62 549V129Z" fill="#A3C68B"/>
<path d="M324.667 113.467C270.8 118.933 224.267 139.6 186.133 174.8C151.733 206.8 129.067 247.2 119.067 294.533C115.867 309.733 115.467 314 115.467 340C115.467 364.933 115.867 370.533 118.4 382.667C138.8 476.533 204.533 541.467 298.8 560.533C328.4 566.533 360.4 566.133 394.133 559.333C451.6 547.733 503.6 514.133 537.2 466.933C554.4 442.667 564.133 421.6 571.467 392.533C582.133 350.267 580.8 306.933 567.867 267.6C549.867 213.2 509.467 166.933 456 139.6C436.933 129.733 425.867 125.467 408 120.667C382.4 114 348.533 110.933 324.667 113.467ZM375.733 124.667C416.267 130.4 452.533 145.467 487.067 170.933C492 174.533 496 178.133 496 178.667C496 179.333 492.8 178.667 489.067 177.333C462.267 168 428.667 172 409.467 186.8C382.267 207.733 366.4 241.067 366.4 276.667C366.4 302.8 371.467 320.933 388.933 358C411.6 406.133 417.067 421.067 420 442.933C421.867 455.867 420.933 464.8 416.533 478.933C410 499.333 400.133 516.933 384 536.667C369.2 554.667 370.933 553.733 348 554.4C337.067 554.8 327.067 554.533 325.867 554.133C324 553.467 325.467 551.467 333.067 544.533C350.133 528.933 360.133 511.867 365.467 489.6C369.067 474.933 368.4 451.2 364.133 436.667C352.933 398.533 322.133 367.733 284.4 357.067C269.733 352.933 244 352.933 228.667 357.067C189.2 367.867 161.6 395.333 153.467 432L150.933 443.333L145.6 432C138.533 416.933 131.467 395.867 127.867 378.667C123.733 359.067 123.733 324.933 127.867 302.133C135.6 258.8 155.6 220.267 186.533 189.333C204.133 171.6 214.667 163.6 234.8 152C276.8 127.867 328.4 118 375.733 124.667ZM495.2 190.4C506.933 194.8 515.2 198.667 517.733 200.933C532 214.267 552.933 252.267 559.867 277.467C565.733 298.667 568.267 317.6 567.733 335.2C567.333 350.133 567.2 350.667 563.333 354.667C554.267 364.267 544.133 368.133 517.867 372C498.4 374.933 491.6 376.933 478.667 383.333C458.8 393.333 443.467 410.8 433.867 434.4L430.933 441.733L430 435.2C427.2 416 420.4 397.2 403.467 362.4C383.467 321.067 377.333 300.8 377.333 275.6C377.333 232.667 402.933 194.8 439.067 184.667C443.867 183.2 450.533 182.8 461.333 183.2C475.867 183.6 477.6 184 495.2 190.4ZM278.267 366.133C308.133 372.8 332.8 392.8 346.8 422C354.4 437.6 357.467 451.2 357.467 468C357.6 489.467 352 506.133 338.667 523.867C328.933 537.067 311.067 552 305.067 552C300.8 552 278.533 546 267.333 541.733C225.467 526 197.067 505.467 168.933 470.533C159.333 458.533 158.267 450.8 163.467 430C168.4 410.8 185.867 388.4 204.267 377.467C226.4 364.533 253.067 360.4 278.267 366.133ZM566.667 368.933C566.667 371.6 561.067 392.8 557.2 404.667C551.2 423.733 544 438.4 532.4 455.733C508.933 491.067 472.533 520.8 432.667 536.933C419.2 542.4 390 551.067 387.733 550.4C387.067 550.133 388.8 547.2 391.733 544C411.333 521.6 424.667 497.2 433.333 467.067C445.067 427.067 461.067 404.133 486 391.867C496.667 386.667 503.2 385.067 531.6 380.8C544.667 378.8 561.067 372.933 563.2 369.467C564.267 367.867 566.667 367.467 566.667 368.933Z" fill="black"/>
</g>
<defs>
<filter id="filter0_d_2_2" x="-4" y="0" width="690.667" height="690.667" filterUnits="userSpaceOnUse" color-interpolation-filters="sRGB">
<feFlood flood-opacity="0" result="BackgroundImageFix"/>
<feColorMatrix in="SourceAlpha" type="matrix" values="0 0 0 0 0 0 0 0 0 0 0 0 0 0 0 0 0 0 127 0" result="hardAlpha"/>
<feOffset dy="4"/>
<feGaussianBlur stdDeviation="2"/>
<feComposite in2="hardAlpha" operator="out"/>
<feColorMatrix type="matrix" values="0 0 0 0 0 0 0 0 0 0 0 0 0 0 0 0 0 0 0.25 0"/>
<feBlend mode="normal" in2="BackgroundImageFix" result="effect1_dropShadow_2_2"/>
<feBlend mode="normal" in="SourceGraphic" in2="effect1_dropShadow_2_2" result="shape"/>
</filter>
</defs>
</svg>
