<svg width="481" height="470" viewBox="0 0 481 470" fill="none" xmlns="http://www.w3.org/2000/svg">
<path d="M217.7 9.38372C163.833 14.8504 117.3 35.5171 79.1667 70.7171C44.7667 102.717 22.1 143.117 12.1 190.45C8.9 205.65 8.5 209.917 8.5 235.917C8.5 260.85 8.9 266.45 11.4333 278.584C31.8333 372.45 97.5667 437.384 191.833 456.45C221.433 462.45 253.433 462.05 287.167 455.25C344.633 443.65 396.633 410.05 430.233 362.85C447.433 338.584 457.167 317.517 464.5 288.45C475.167 246.184 473.833 202.85 460.9 163.517C442.9 109.117 402.5 62.8504 349.033 35.5171C329.967 25.6504 318.9 21.3837 301.033 16.5837C275.433 9.91705 241.567 6.85039 217.7 9.38372ZM268.767 20.5837C309.3 26.3171 345.567 41.3837 380.1 66.8504C385.033 70.4504 389.033 74.0504 389.033 74.5837C389.033 75.2504 385.833 74.5837 382.1 73.2504C355.3 63.9171 321.7 67.9171 302.5 82.7171C275.3 103.65 259.433 136.984 259.433 172.584C259.433 198.717 264.5 216.85 281.967 253.917C304.633 302.05 310.1 316.984 313.033 338.85C314.9 351.784 313.967 360.717 309.567 374.85C303.033 395.25 293.167 412.85 277.033 432.584C262.233 450.584 263.967 449.65 241.033 450.317C230.1 450.717 220.1 450.45 218.9 450.05C217.033 449.384 218.5 447.384 226.1 440.45C243.167 424.85 253.167 407.784 258.5 385.517C262.1 370.85 261.433 347.117 257.167 332.584C245.967 294.45 215.167 263.65 177.433 252.984C162.767 248.85 137.033 248.85 121.7 252.984C82.2333 263.784 54.6333 291.25 46.5 327.917L43.9667 339.25L38.6333 327.917C31.5667 312.85 24.5 291.784 20.9 274.584C16.7667 254.984 16.7667 220.85 20.9 198.05C28.6333 154.717 48.6333 116.184 79.5667 85.2504C97.1667 67.5171 107.7 59.5171 127.833 47.9171C169.833 23.7837 221.433 13.9171 268.767 20.5837ZM388.233 86.3171C399.967 90.7171 408.233 94.5837 410.767 96.8504C425.033 110.184 445.967 148.184 452.9 173.384C458.767 194.584 461.3 213.517 460.767 231.117C460.367 246.05 460.233 246.584 456.367 250.584C447.3 260.184 437.167 264.05 410.9 267.917C391.433 270.85 384.633 272.85 371.7 279.25C351.833 289.25 336.5 306.717 326.9 330.317L323.967 337.65L323.033 331.117C320.233 311.917 313.433 293.117 296.5 258.317C276.5 216.984 270.367 196.717 270.367 171.517C270.367 128.584 295.967 90.7171 332.1 80.5837C336.9 79.1171 343.567 78.7171 354.367 79.1171C368.9 79.5171 370.633 79.9171 388.233 86.3171ZM171.3 262.05C201.167 268.717 225.833 288.717 239.833 317.917C247.433 333.517 250.5 347.117 250.5 363.917C250.633 385.384 245.033 402.05 231.7 419.784C221.967 432.984 204.1 447.917 198.1 447.917C193.833 447.917 171.567 441.917 160.367 437.65C118.5 421.917 90.1 401.384 61.9667 366.45C52.3667 354.45 51.3 346.717 56.5 325.917C61.4333 306.717 78.9 284.317 97.3 273.384C119.433 260.45 146.1 256.317 171.3 262.05ZM459.7 264.85C459.7 267.517 454.1 288.717 450.233 300.584C444.233 319.65 437.033 334.317 425.433 351.65C401.967 386.984 365.567 416.717 325.7 432.85C312.233 438.317 283.033 446.984 280.767 446.317C280.1 446.05 281.833 443.117 284.767 439.917C304.367 417.517 317.7 393.117 326.367 362.984C338.1 322.984 354.1 300.05 379.033 287.784C389.7 282.584 396.233 280.984 424.633 276.717C437.7 274.717 454.1 268.85 456.233 265.384C457.3 263.784 459.7 263.384 459.7 264.85Z" fill="black" stroke="black" stroke-width="17"/>
</svg>
