<svg id="visual" viewBox="0 0 2000 100" width="2000" height="100" xmlns="http://www.w3.org/2000/svg" xmlns:xlink="http://www.w3.org/1999/xlink" version="1.1"><path d="M0 13L18.5 13.3C37 13.7 74 14.3 111 14.5C148 14.7 185 14.3 222 13.2C259 12 296 10 333 12.2C370 14.3 407 20.7 444.2 21.7C481.3 22.7 518.7 18.3 555.8 18.8C593 19.3 630 24.7 667 25.3C704 26 741 22 778 19.7C815 17.3 852 16.7 889 18C926 19.3 963 22.7 1000 24C1037 25.3 1074 24.7 1111 21.7C1148 18.7 1185 13.3 1222 12.3C1259 11.3 1296 14.7 1333 15.5C1370 16.3 1407 14.7 1444.2 16.7C1481.3 18.7 1518.7 24.3 1555.8 22.8C1593 21.3 1630 12.7 1667 10.7C1704 8.7 1741 13.3 1778 15.7C1815 18 1852 18 1889 18.2C1926 18.3 1963 18.7 1981.5 18.8L2000 19L2000 0L1981.5 0C1963 0 1926 0 1889 0C1852 0 1815 0 1778 0C1741 0 1704 0 1667 0C1630 0 1593 0 1555.8 0C1518.7 0 1481.3 0 1444.2 0C1407 0 1370 0 1333 0C1296 0 1259 0 1222 0C1185 0 1148 0 1111 0C1074 0 1037 0 1000 0C963 0 926 0 889 0C852 0 815 0 778 0C741 0 704 0 667 0C630 0 593 0 555.8 0C518.7 0 481.3 0 444.2 0C407 0 370 0 333 0C296 0 259 0 222 0C185 0 148 0 111 0C74 0 37 0 18.5 0L0 0Z" fill="#8fcadd"></path><path d="M0 59L18.5 59.3C37 59.7 74 60.3 111 62.7C148 65 185 69 222 72C259 75 296 77 333 74.7C370 72.3 407 65.7 444.2 57.3C481.3 49 518.7 39 555.8 36.8C593 34.7 630 40.3 667 42.5C704 44.7 741 43.3 778 43.3C815 43.3 852 44.7 889 46.3C926 48 963 50 1000 52.3C1037 54.7 1074 57.3 1111 57.5C1148 57.7 1185 55.3 1222 53.3C1259 51.3 1296 49.7 1333 51.5C1370 53.3 1407 58.7 1444.2 60.8C1481.3 63 1518.7 62 1555.8 56.2C1593 50.3 1630 39.7 1667 38.7C1704 37.7 1741 46.3 1778 51.8C1815 57.3 1852 59.7 1889 61.8C1926 64 1963 66 1981.5 67L2000 68L2000 17L1981.5 16.8C1963 16.7 1926 16.3 1889 16.2C1852 16 1815 16 1778 13.7C1741 11.3 1704 6.7 1667 8.7C1630 10.7 1593 19.3 1555.8 20.8C1518.7 22.3 1481.3 16.7 1444.2 14.7C1407 12.7 1370 14.3 1333 13.5C1296 12.7 1259 9.3 1222 10.3C1185 11.3 1148 16.7 1111 19.7C1074 22.7 1037 23.3 1000 22C963 20.7 926 17.3 889 16C852 14.7 815 15.3 778 17.7C741 20 704 24 667 23.3C630 22.7 593 17.3 555.8 16.8C518.7 16.3 481.3 20.7 444.2 19.7C407 18.7 370 12.3 333 10.2C296 8 259 10 222 11.2C185 12.3 148 12.7 111 12.5C74 12.3 37 11.7 18.5 11.3L0 11Z" fill="#69bbd4"></path><path d="M0 81L18.5 78.3C37 75.7 74 70.3 111 70.5C148 70.7 185 76.3 222 80.8C259 85.3 296 88.7 333 90.3C370 92 407 92 444.2 92.3C481.3 92.7 518.7 93.3 555.8 91.7C593 90 630 86 667 81.7C704 77.3 741 72.7 778 72.2C815 71.7 852 75.3 889 76.7C926 78 963 77 1000 77.8C1037 78.7 1074 81.3 1111 81C1148 80.7 1185 77.3 1222 78.5C1259 79.7 1296 85.3 1333 88.8C1370 92.3 1407 93.7 1444.2 92.8C1481.3 92 1518.7 89 1555.8 88.7C1593 88.3 1630 90.7 1667 90.2C1704 89.7 1741 86.3 1778 85.3C1815 84.3 1852 85.7 1889 85.5C1926 85.3 1963 83.7 1981.5 82.8L2000 82L2000 66L1981.5 65C1963 64 1926 62 1889 59.8C1852 57.7 1815 55.3 1778 49.8C1741 44.3 1704 35.7 1667 36.7C1630 37.7 1593 48.3 1555.8 54.2C1518.7 60 1481.3 61 1444.2 58.8C1407 56.7 1370 51.3 1333 49.5C1296 47.7 1259 49.3 1222 51.3C1185 53.3 1148 55.7 1111 55.5C1074 55.3 1037 52.7 1000 50.3C963 48 926 46 889 44.3C852 42.7 815 41.3 778 41.3C741 41.3 704 42.7 667 40.5C630 38.3 593 32.7 555.8 34.8C518.7 37 481.3 47 444.2 55.3C407 63.7 370 70.3 333 72.7C296 75 259 73 222 70C185 67 148 63 111 60.7C74 58.3 37 57.7 18.5 57.3L0 57Z" fill="#4ba3be"></path><path d="M0 101L18.5 101C37 101 74 101 111 101C148 101 185 101 222 101C259 101 296 101 333 101C370 101 407 101 444.2 101C481.3 101 518.7 101 555.8 101C593 101 630 101 667 101C704 101 741 101 778 101C815 101 852 101 889 101C926 101 963 101 1000 101C1037 101 1074 101 1111 101C1148 101 1185 101 1222 101C1259 101 1296 101 1333 101C1370 101 1407 101 1444.2 101C1481.3 101 1518.7 101 1555.8 101C1593 101 1630 101 1667 101C1704 101 1741 101 1778 101C1815 101 1852 101 1889 101C1926 101 1963 101 1981.5 101L2000 101L2000 80L1981.5 80.8C1963 81.7 1926 83.3 1889 83.5C1852 83.7 1815 82.3 1778 83.3C1741 84.3 1704 87.7 1667 88.2C1630 88.7 1593 86.3 1555.8 86.7C1518.7 87 1481.3 90 1444.2 90.8C1407 91.7 1370 90.3 1333 86.8C1296 83.3 1259 77.7 1222 76.5C1185 75.3 1148 78.7 1111 79C1074 79.3 1037 76.7 1000 75.8C963 75 926 76 889 74.7C852 73.3 815 69.7 778 70.2C741 70.7 704 75.3 667 79.7C630 84 593 88 555.8 89.7C518.7 91.3 481.3 90.7 444.2 90.3C407 90 370 90 333 88.3C296 86.7 259 83.3 222 78.8C185 74.3 148 68.7 111 68.5C74 68.3 37 73.7 18.5 76.3L0 79Z" fill="#3b849a"></path></svg>