<svg id="visual" viewBox="0 0 2000 100" width="2000" height="100" xmlns="http://www.w3.org/2000/svg" xmlns:xlink="http://www.w3.org/1999/xlink" version="1.1"><rect x="0" y="0" width="2000" height="100" fill="#2aa4e2"></rect><path d="M0 73L33.3 64.5C66.7 56 133.3 39 200 33.3C266.7 27.7 333.3 33.3 400 36.3C466.7 39.3 533.3 39.7 600 47.7C666.7 55.7 733.3 71.3 800 74.3C866.7 77.3 933.3 67.7 1000 59.3C1066.7 51 1133.3 44 1200 43C1266.7 42 1333.3 47 1400 45.5C1466.7 44 1533.3 36 1600 36.8C1666.7 37.7 1733.3 47.3 1800 56C1866.7 64.7 1933.3 72.3 1966.7 76.2L2000 80L2000 101L1966.7 101C1933.3 101 1866.7 101 1800 101C1733.3 101 1666.7 101 1600 101C1533.3 101 1466.7 101 1400 101C1333.3 101 1266.7 101 1200 101C1133.3 101 1066.7 101 1000 101C933.3 101 866.7 101 800 101C733.3 101 666.7 101 600 101C533.3 101 466.7 101 400 101C333.3 101 266.7 101 200 101C133.3 101 66.7 101 33.3 101L0 101Z" fill="#21749d" stroke-linecap="round" stroke-linejoin="miter"></path></svg>